<mxfile host="app.diagrams.net" modified="2021-12-14T07:10:57.865Z" agent="5.0 (X11)" etag="AlKYL8maMyJpLtz_UoXe" version="15.9.1" type="github">
  <diagram id="gq0o6sC7ZTq9t6Uskoy_" name="Page-1">
    <mxGraphModel dx="1658" dy="1751" grid="1" gridSize="10" guides="1" tooltips="1" connect="1" arrows="1" fold="1" page="1" pageScale="1" pageWidth="1169" pageHeight="827" math="0" shadow="0">
      <root>
        <mxCell id="0" />
        <mxCell id="1" parent="0" />
        <mxCell id="Fs0EK0N3hpx1ZLhl30mS-3" style="edgeStyle=orthogonalEdgeStyle;rounded=0;orthogonalLoop=1;jettySize=auto;html=1;shadow=1;" edge="1" parent="1" source="Fs0EK0N3hpx1ZLhl30mS-1" target="Fs0EK0N3hpx1ZLhl30mS-2">
          <mxGeometry relative="1" as="geometry" />
        </mxCell>
        <mxCell id="Fs0EK0N3hpx1ZLhl30mS-33" style="edgeStyle=orthogonalEdgeStyle;rounded=0;orthogonalLoop=1;jettySize=auto;html=1;shadow=1;" edge="1" parent="1" source="Fs0EK0N3hpx1ZLhl30mS-1">
          <mxGeometry relative="1" as="geometry">
            <mxPoint x="650" y="-580" as="targetPoint" />
            <Array as="points">
              <mxPoint x="650" y="-625" />
            </Array>
          </mxGeometry>
        </mxCell>
        <mxCell id="Fs0EK0N3hpx1ZLhl30mS-1" value="" style="sketch=0;points=[[0.5,0,0],[1,0.5,0],[0.5,1,0],[0,0.5,0],[0.145,0.145,0],[0.8555,0.145,0],[0.855,0.8555,0],[0.145,0.855,0]];verticalLabelPosition=bottom;html=1;verticalAlign=top;aspect=fixed;align=center;pointerEvents=1;shape=mxgraph.cisco19.rect;prIcon=router;fillColor=#FAFAFA;strokeColor=#005073;shadow=1;" vertex="1" parent="1">
          <mxGeometry x="555.5" y="-650" width="50" height="50" as="geometry" />
        </mxCell>
        <mxCell id="Fs0EK0N3hpx1ZLhl30mS-2" value="" style="html=1;outlineConnect=0;fillColor=#CCCCCC;strokeColor=#6881B3;gradientColor=none;gradientDirection=north;strokeWidth=2;shape=mxgraph.networks.cloud;fontColor=#ffffff;" vertex="1" parent="1">
          <mxGeometry x="450" y="-810" width="261" height="100" as="geometry" />
        </mxCell>
        <mxCell id="Fs0EK0N3hpx1ZLhl30mS-16" style="edgeStyle=orthogonalEdgeStyle;rounded=0;orthogonalLoop=1;jettySize=auto;html=1;entryX=0;entryY=0.824;entryDx=0;entryDy=0;entryPerimeter=0;strokeColor=#248003;" edge="1" parent="1" source="Fs0EK0N3hpx1ZLhl30mS-4" target="Fs0EK0N3hpx1ZLhl30mS-12">
          <mxGeometry relative="1" as="geometry">
            <mxPoint x="645" y="-460" as="targetPoint" />
            <Array as="points">
              <mxPoint x="740" y="-570" />
              <mxPoint x="740" y="-450" />
            </Array>
          </mxGeometry>
        </mxCell>
        <mxCell id="Fs0EK0N3hpx1ZLhl30mS-45" value="Gi 0/0" style="edgeLabel;html=1;align=center;verticalAlign=middle;resizable=0;points=[];" vertex="1" connectable="0" parent="Fs0EK0N3hpx1ZLhl30mS-16">
          <mxGeometry x="-0.143" y="-2" relative="1" as="geometry">
            <mxPoint x="18" y="-1" as="offset" />
          </mxGeometry>
        </mxCell>
        <mxCell id="Fs0EK0N3hpx1ZLhl30mS-17" style="edgeStyle=orthogonalEdgeStyle;rounded=0;orthogonalLoop=1;jettySize=auto;html=1;entryX=0;entryY=0.714;entryDx=0;entryDy=0;entryPerimeter=0;strokeColor=#248003;" edge="1" parent="1" source="Fs0EK0N3hpx1ZLhl30mS-4" target="Fs0EK0N3hpx1ZLhl30mS-10">
          <mxGeometry relative="1" as="geometry">
            <mxPoint x="645" y="-320" as="targetPoint" />
            <Array as="points">
              <mxPoint x="710" y="-550" />
              <mxPoint x="710" y="-320" />
            </Array>
          </mxGeometry>
        </mxCell>
        <mxCell id="Fs0EK0N3hpx1ZLhl30mS-46" value="Gi 0/1" style="edgeLabel;html=1;align=center;verticalAlign=middle;resizable=0;points=[];" vertex="1" connectable="0" parent="Fs0EK0N3hpx1ZLhl30mS-17">
          <mxGeometry x="0.0013" y="2" relative="1" as="geometry">
            <mxPoint x="15" y="3" as="offset" />
          </mxGeometry>
        </mxCell>
        <mxCell id="Fs0EK0N3hpx1ZLhl30mS-20" style="edgeStyle=orthogonalEdgeStyle;rounded=0;orthogonalLoop=1;jettySize=auto;html=1;strokeColor=#248003;" edge="1" parent="1" source="Fs0EK0N3hpx1ZLhl30mS-4" target="Fs0EK0N3hpx1ZLhl30mS-11">
          <mxGeometry relative="1" as="geometry">
            <mxPoint x="645" y="-200" as="targetPoint" />
            <Array as="points">
              <mxPoint x="680" y="-200" />
            </Array>
          </mxGeometry>
        </mxCell>
        <mxCell id="Fs0EK0N3hpx1ZLhl30mS-48" value="Gi 0/2" style="edgeLabel;html=1;align=center;verticalAlign=middle;resizable=0;points=[];" vertex="1" connectable="0" parent="Fs0EK0N3hpx1ZLhl30mS-20">
          <mxGeometry x="0.0818" y="1" relative="1" as="geometry">
            <mxPoint x="15" y="2" as="offset" />
          </mxGeometry>
        </mxCell>
        <mxCell id="Fs0EK0N3hpx1ZLhl30mS-21" style="edgeStyle=orthogonalEdgeStyle;rounded=0;orthogonalLoop=1;jettySize=auto;html=1;strokeColor=#248003;" edge="1" parent="1" source="Fs0EK0N3hpx1ZLhl30mS-4">
          <mxGeometry relative="1" as="geometry">
            <mxPoint x="160" y="-480" as="targetPoint" />
            <Array as="points">
              <mxPoint x="560" y="-570" />
              <mxPoint x="560" y="-480" />
            </Array>
          </mxGeometry>
        </mxCell>
        <mxCell id="Fs0EK0N3hpx1ZLhl30mS-49" value="Gi 0/7" style="edgeLabel;html=1;align=center;verticalAlign=middle;resizable=0;points=[];" vertex="1" connectable="0" parent="Fs0EK0N3hpx1ZLhl30mS-21">
          <mxGeometry x="-0.3817" y="1" relative="1" as="geometry">
            <mxPoint x="-17" as="offset" />
          </mxGeometry>
        </mxCell>
        <mxCell id="Fs0EK0N3hpx1ZLhl30mS-37" style="edgeStyle=orthogonalEdgeStyle;rounded=0;orthogonalLoop=1;jettySize=auto;html=1;strokeColor=#248003;" edge="1" parent="1" source="Fs0EK0N3hpx1ZLhl30mS-4">
          <mxGeometry relative="1" as="geometry">
            <mxPoint x="160" y="-360" as="targetPoint" />
            <Array as="points">
              <mxPoint x="630" y="-360" />
              <mxPoint x="160" y="-360" />
            </Array>
          </mxGeometry>
        </mxCell>
        <mxCell id="Fs0EK0N3hpx1ZLhl30mS-52" value="Gi 0/5" style="edgeLabel;html=1;align=center;verticalAlign=middle;resizable=0;points=[];" vertex="1" connectable="0" parent="Fs0EK0N3hpx1ZLhl30mS-37">
          <mxGeometry x="-0.1677" relative="1" as="geometry">
            <mxPoint x="52" y="1" as="offset" />
          </mxGeometry>
        </mxCell>
        <mxCell id="Fs0EK0N3hpx1ZLhl30mS-39" style="edgeStyle=orthogonalEdgeStyle;rounded=0;orthogonalLoop=1;jettySize=auto;html=1;strokeColor=#1F17FF;shadow=1;sketch=1;" edge="1" parent="1" source="Fs0EK0N3hpx1ZLhl30mS-4">
          <mxGeometry relative="1" as="geometry">
            <mxPoint x="160" y="-440" as="targetPoint" />
            <Array as="points">
              <mxPoint x="600" y="-550" />
              <mxPoint x="600" y="-440" />
            </Array>
          </mxGeometry>
        </mxCell>
        <mxCell id="Fs0EK0N3hpx1ZLhl30mS-51" value="Gi 0/6" style="edgeLabel;html=1;align=center;verticalAlign=middle;resizable=0;points=[];" vertex="1" connectable="0" parent="Fs0EK0N3hpx1ZLhl30mS-39">
          <mxGeometry x="-0.3754" y="2" relative="1" as="geometry">
            <mxPoint x="11" y="-1" as="offset" />
          </mxGeometry>
        </mxCell>
        <mxCell id="Fs0EK0N3hpx1ZLhl30mS-40" style="edgeStyle=orthogonalEdgeStyle;rounded=0;orthogonalLoop=1;jettySize=auto;html=1;strokeColor=#1F17FF;shadow=1;sketch=1;" edge="1" parent="1" source="Fs0EK0N3hpx1ZLhl30mS-4">
          <mxGeometry relative="1" as="geometry">
            <mxPoint x="160" y="-320" as="targetPoint" />
            <Array as="points">
              <mxPoint x="640" y="-320" />
            </Array>
          </mxGeometry>
        </mxCell>
        <mxCell id="Fs0EK0N3hpx1ZLhl30mS-53" value="Gi 0/4" style="edgeLabel;html=1;align=center;verticalAlign=middle;resizable=0;points=[];" vertex="1" connectable="0" parent="Fs0EK0N3hpx1ZLhl30mS-40">
          <mxGeometry x="-0.101" y="1" relative="1" as="geometry">
            <mxPoint x="65" as="offset" />
          </mxGeometry>
        </mxCell>
        <mxCell id="Fs0EK0N3hpx1ZLhl30mS-54" style="edgeStyle=orthogonalEdgeStyle;rounded=0;orthogonalLoop=1;jettySize=auto;html=1;dashed=1;" edge="1" parent="1" source="Fs0EK0N3hpx1ZLhl30mS-4">
          <mxGeometry relative="1" as="geometry">
            <mxPoint x="160" y="-200" as="targetPoint" />
            <Array as="points">
              <mxPoint x="660" y="-200" />
            </Array>
          </mxGeometry>
        </mxCell>
        <mxCell id="Fs0EK0N3hpx1ZLhl30mS-55" value="Gi 0/3" style="edgeLabel;html=1;align=center;verticalAlign=middle;resizable=0;points=[];" vertex="1" connectable="0" parent="Fs0EK0N3hpx1ZLhl30mS-54">
          <mxGeometry x="0.0735" y="2" relative="1" as="geometry">
            <mxPoint x="76" y="-1" as="offset" />
          </mxGeometry>
        </mxCell>
        <mxCell id="Fs0EK0N3hpx1ZLhl30mS-4" value="" style="sketch=0;points=[[0.015,0.015,0],[0.985,0.015,0],[0.985,0.985,0],[0.015,0.985,0],[0.25,0,0],[0.5,0,0],[0.75,0,0],[1,0.25,0],[1,0.5,0],[1,0.75,0],[0.75,1,0],[0.5,1,0],[0.25,1,0],[0,0.75,0],[0,0.5,0],[0,0.25,0]];verticalLabelPosition=bottom;html=1;verticalAlign=top;aspect=fixed;align=center;pointerEvents=1;shape=mxgraph.cisco19.rect;prIcon=l2_switch;fillColor=#FAFAFA;strokeColor=#005073;gradientColor=#ffffff;shadow=1;" vertex="1" parent="1">
          <mxGeometry x="630" y="-580" width="50" height="50" as="geometry" />
        </mxCell>
        <mxCell id="Fs0EK0N3hpx1ZLhl30mS-5" value="&lt;div&gt;Модуль&lt;/div&gt;&lt;div&gt; EHWIC-D-8ESG&lt;/div&gt;" style="text;html=1;strokeColor=none;fillColor=none;align=center;verticalAlign=middle;whiteSpace=wrap;rounded=0;" vertex="1" parent="1">
          <mxGeometry x="750" y="-610" width="120" height="30" as="geometry" />
        </mxCell>
        <mxCell id="Fs0EK0N3hpx1ZLhl30mS-6" value="&lt;div&gt;Роутер&lt;/div&gt;&lt;div&gt;Cisco ISR 2921&lt;br&gt;&lt;/div&gt;" style="text;html=1;strokeColor=none;fillColor=none;align=center;verticalAlign=middle;whiteSpace=wrap;rounded=0;" vertex="1" parent="1">
          <mxGeometry x="585" y="-670" width="120" height="30" as="geometry" />
        </mxCell>
        <mxCell id="Fs0EK0N3hpx1ZLhl30mS-7" value="Beeline провайдер" style="text;html=1;strokeColor=none;fillColor=none;align=center;verticalAlign=middle;whiteSpace=wrap;rounded=0;" vertex="1" parent="1">
          <mxGeometry x="680" y="-810" width="120" height="30" as="geometry" />
        </mxCell>
        <mxCell id="Fs0EK0N3hpx1ZLhl30mS-10" value="" style="fontColor=#0066CC;verticalAlign=top;verticalLabelPosition=bottom;labelPosition=center;align=center;html=1;outlineConnect=0;fillColor=#CCCCCC;strokeColor=#6881B3;gradientColor=none;gradientDirection=north;strokeWidth=2;shape=mxgraph.networks.pc;" vertex="1" parent="1">
          <mxGeometry x="990" y="-370" width="100" height="70" as="geometry" />
        </mxCell>
        <mxCell id="Fs0EK0N3hpx1ZLhl30mS-11" value="" style="fontColor=#0066CC;verticalAlign=top;verticalLabelPosition=bottom;labelPosition=center;align=center;html=1;outlineConnect=0;fillColor=#CCCCCC;strokeColor=#6881B3;gradientColor=none;gradientDirection=north;strokeWidth=2;shape=mxgraph.networks.pc;" vertex="1" parent="1">
          <mxGeometry x="990" y="-250" width="100" height="70" as="geometry" />
        </mxCell>
        <mxCell id="Fs0EK0N3hpx1ZLhl30mS-12" value="" style="fontColor=#0066CC;verticalAlign=top;verticalLabelPosition=bottom;labelPosition=center;align=center;html=1;outlineConnect=0;fillColor=#CCCCCC;strokeColor=#6881B3;gradientColor=none;gradientDirection=north;strokeWidth=2;shape=mxgraph.networks.wireless_modem;" vertex="1" parent="1">
          <mxGeometry x="990" y="-520" width="100" height="85" as="geometry" />
        </mxCell>
        <mxCell id="Fs0EK0N3hpx1ZLhl30mS-13" value="" style="fontColor=#0066CC;verticalAlign=top;verticalLabelPosition=bottom;labelPosition=center;align=center;html=1;outlineConnect=0;fillColor=#CCCCCC;strokeColor=#6881B3;gradientColor=none;gradientDirection=north;strokeWidth=2;shape=mxgraph.networks.nas_filer;" vertex="1" parent="1">
          <mxGeometry x="60" y="-474.5" width="100" height="35" as="geometry" />
        </mxCell>
        <mxCell id="Fs0EK0N3hpx1ZLhl30mS-14" value="" style="fontColor=#0066CC;verticalAlign=top;verticalLabelPosition=bottom;labelPosition=center;align=center;html=1;outlineConnect=0;fillColor=#CCCCCC;strokeColor=#6881B3;gradientColor=none;gradientDirection=north;strokeWidth=2;shape=mxgraph.networks.nas_filer;" vertex="1" parent="1">
          <mxGeometry x="60" y="-354" width="100" height="35" as="geometry" />
        </mxCell>
        <mxCell id="Fs0EK0N3hpx1ZLhl30mS-23" value="VLAN 2" style="text;html=1;strokeColor=none;fillColor=none;align=center;verticalAlign=middle;whiteSpace=wrap;rounded=0;" vertex="1" parent="1">
          <mxGeometry x="785" y="-470" width="70" height="20" as="geometry" />
        </mxCell>
        <mxCell id="Fs0EK0N3hpx1ZLhl30mS-24" value="VLAN 10" style="text;html=1;strokeColor=none;fillColor=none;align=center;verticalAlign=middle;whiteSpace=wrap;rounded=0;" vertex="1" parent="1">
          <mxGeometry x="750" y="-339" width="120" height="20" as="geometry" />
        </mxCell>
        <mxCell id="Fs0EK0N3hpx1ZLhl30mS-25" value="VLAN 9" style="text;html=1;strokeColor=none;fillColor=none;align=center;verticalAlign=middle;whiteSpace=wrap;rounded=0;" vertex="1" parent="1">
          <mxGeometry x="750" y="-219" width="120" height="20" as="geometry" />
        </mxCell>
        <mxCell id="Fs0EK0N3hpx1ZLhl30mS-26" value="Домашний компьютер" style="text;html=1;strokeColor=none;fillColor=none;align=center;verticalAlign=middle;whiteSpace=wrap;rounded=0;" vertex="1" parent="1">
          <mxGeometry x="910" y="-308" width="120" height="30" as="geometry" />
        </mxCell>
        <mxCell id="Fs0EK0N3hpx1ZLhl30mS-27" value="&lt;div&gt;Компьютер&lt;/div&gt;&lt;div&gt;remote 1C&lt;/div&gt;" style="text;html=1;strokeColor=none;fillColor=none;align=center;verticalAlign=middle;whiteSpace=wrap;rounded=0;" vertex="1" parent="1">
          <mxGeometry x="910" y="-188" width="120" height="30" as="geometry" />
        </mxCell>
        <mxCell id="Fs0EK0N3hpx1ZLhl30mS-28" value="&lt;div&gt;Гостевой&lt;/div&gt;&lt;div&gt;WiFi&lt;br&gt;&lt;/div&gt;" style="text;html=1;strokeColor=none;fillColor=none;align=center;verticalAlign=middle;whiteSpace=wrap;rounded=0;" vertex="1" parent="1">
          <mxGeometry x="910" y="-435" width="120" height="30" as="geometry" />
        </mxCell>
        <mxCell id="Fs0EK0N3hpx1ZLhl30mS-29" value="VLAN 10" style="text;html=1;strokeColor=none;fillColor=none;align=center;verticalAlign=middle;whiteSpace=wrap;rounded=0;" vertex="1" parent="1">
          <mxGeometry x="320" y="-500.5" width="70" height="20" as="geometry" />
        </mxCell>
        <mxCell id="Fs0EK0N3hpx1ZLhl30mS-30" value="iLO" style="text;html=1;strokeColor=none;fillColor=none;align=center;verticalAlign=middle;whiteSpace=wrap;rounded=0;" vertex="1" parent="1">
          <mxGeometry x="140" y="-500.5" width="50" height="20" as="geometry" />
        </mxCell>
        <mxCell id="Fs0EK0N3hpx1ZLhl30mS-31" value="VLAN 10, 11, 12, 13" style="text;html=1;strokeColor=none;fillColor=none;align=center;verticalAlign=middle;whiteSpace=wrap;rounded=0;" vertex="1" parent="1">
          <mxGeometry x="320" y="-459.5" width="120" height="20" as="geometry" />
        </mxCell>
        <mxCell id="Fs0EK0N3hpx1ZLhl30mS-38" value="iLO" style="text;html=1;strokeColor=none;fillColor=none;align=center;verticalAlign=middle;whiteSpace=wrap;rounded=0;" vertex="1" parent="1">
          <mxGeometry x="140" y="-379" width="50" height="20" as="geometry" />
        </mxCell>
        <mxCell id="Fs0EK0N3hpx1ZLhl30mS-56" value="VLAN 10" style="text;html=1;strokeColor=none;fillColor=none;align=center;verticalAlign=middle;whiteSpace=wrap;rounded=0;" vertex="1" parent="1">
          <mxGeometry x="290" y="-379" width="120" height="20" as="geometry" />
        </mxCell>
        <mxCell id="Fs0EK0N3hpx1ZLhl30mS-57" value="VLAN 10, 21, 22, 23" style="text;html=1;strokeColor=none;fillColor=none;align=center;verticalAlign=middle;whiteSpace=wrap;rounded=0;" vertex="1" parent="1">
          <mxGeometry x="320" y="-339" width="120" height="20" as="geometry" />
        </mxCell>
        <mxCell id="Fs0EK0N3hpx1ZLhl30mS-58" value="&lt;font style=&quot;font-size: 8px&quot;&gt;&lt;span style=&quot;font-family: &amp;#34;source code pro&amp;#34; , monospace ; color: rgb(66 , 66 , 66) ; background-color: transparent ; font-weight: 400 ; font-style: normal ; font-variant: normal ; text-decoration: none ; vertical-align: baseline&quot; id=&quot;docs-internal-guid-bd31c3f7-7fff-add3-67a0-b06b6ec8103c&quot;&gt;10.10.2.244&lt;/span&gt;&lt;/font&gt;" style="text;html=1;align=center;verticalAlign=middle;resizable=0;points=[];autosize=1;strokeColor=none;fillColor=none;fontSize=10;" vertex="1" parent="1">
          <mxGeometry x="740" y="-449" width="70" height="20" as="geometry" />
        </mxCell>
        <mxCell id="Fs0EK0N3hpx1ZLhl30mS-59" value="&lt;div&gt;&lt;font style=&quot;font-size: 8px&quot;&gt;&lt;span style=&quot;font-family: &amp;#34;source code pro&amp;#34; , monospace ; color: rgb(66 , 66 , 66) ; background-color: transparent ; font-weight: 400 ; font-style: normal ; font-variant: normal ; text-decoration: none ; vertical-align: baseline&quot; id=&quot;docs-internal-guid-bd31c3f7-7fff-add3-67a0-b06b6ec8103c&quot;&gt;&lt;/span&gt;&lt;span style=&quot;font-family: &amp;#34;source code pro&amp;#34; , monospace ; color: rgb(66 , 66 , 66) ; background-color: transparent ; font-weight: 400 ; font-style: normal ; font-variant: normal ; text-decoration: none ; vertical-align: baseline&quot; id=&quot;docs-internal-guid-bd31c3f7-7fff-add3-67a0-b06b6ec8103c&quot;&gt;10.10.10.244&lt;/span&gt;&lt;/font&gt;&lt;/div&gt;" style="text;html=1;align=center;verticalAlign=middle;resizable=0;points=[];autosize=1;strokeColor=none;fillColor=none;fontSize=10;" vertex="1" parent="1">
          <mxGeometry x="710" y="-319" width="70" height="20" as="geometry" />
        </mxCell>
        <mxCell id="Fs0EK0N3hpx1ZLhl30mS-60" value="&lt;div&gt;&lt;font style=&quot;font-size: 8px&quot;&gt;&lt;span style=&quot;font-family: &amp;#34;source code pro&amp;#34; , monospace ; color: rgb(66 , 66 , 66) ; background-color: transparent ; font-weight: 400 ; font-style: normal ; font-variant: normal ; text-decoration: none ; vertical-align: baseline&quot; id=&quot;docs-internal-guid-bd31c3f7-7fff-add3-67a0-b06b6ec8103c&quot;&gt;&lt;/span&gt;&lt;span style=&quot;font-family: &amp;#34;source code pro&amp;#34; , monospace ; color: rgb(66 , 66 , 66) ; background-color: transparent ; font-weight: 400 ; font-style: normal ; font-variant: normal ; text-decoration: none ; vertical-align: baseline&quot; id=&quot;docs-internal-guid-bd31c3f7-7fff-add3-67a0-b06b6ec8103c&quot;&gt;10.10.9.244&lt;/span&gt;&lt;/font&gt;&lt;/div&gt;" style="text;html=1;align=center;verticalAlign=middle;resizable=0;points=[];autosize=1;strokeColor=none;fillColor=none;fontSize=10;" vertex="1" parent="1">
          <mxGeometry x="680" y="-199" width="70" height="20" as="geometry" />
        </mxCell>
        <mxCell id="Fs0EK0N3hpx1ZLhl30mS-61" value="&lt;font size=&quot;1&quot;&gt;&lt;span style=&quot;font-size: 8px ; font-family: &amp;#34;source code pro&amp;#34; , monospace ; color: rgb(66 , 66 , 66) ; background-color: transparent ; font-weight: 400 ; font-style: normal ; font-variant: normal ; text-decoration: none ; vertical-align: baseline&quot; id=&quot;docs-internal-guid-bd31c3f7-7fff-add3-67a0-b06b6ec8103c&quot;&gt;10.10.8.244&lt;/span&gt;&lt;/font&gt;" style="text;html=1;align=center;verticalAlign=middle;resizable=0;points=[];autosize=1;strokeColor=none;fillColor=none;fontSize=10;" vertex="1" parent="1">
          <mxGeometry x="490" y="-479.5" width="70" height="20" as="geometry" />
        </mxCell>
        <mxCell id="Fs0EK0N3hpx1ZLhl30mS-62" value="&lt;div style=&quot;font-size: 8px&quot;&gt;&lt;font style=&quot;font-size: 8px&quot;&gt;&lt;span style=&quot;font-family: &amp;#34;source code pro&amp;#34; , monospace ; color: rgb(66 , 66 , 66) ; background-color: transparent ; font-weight: 400 ; font-style: normal ; font-variant: normal ; text-decoration: none ; vertical-align: baseline&quot; id=&quot;docs-internal-guid-bd31c3f7-7fff-add3-67a0-b06b6ec8103c&quot;&gt;&lt;/span&gt;&lt;span style=&quot;font-family: &amp;#34;source code pro&amp;#34; , monospace ; color: rgb(66 , 66 , 66) ; background-color: transparent ; font-weight: 400 ; font-style: normal ; font-variant: normal ; text-decoration: none ; vertical-align: baseline&quot; id=&quot;docs-internal-guid-bd31c3f7-7fff-add3-67a0-b06b6ec8103c&quot;&gt;10.10.11.244&lt;/span&gt;&lt;span style=&quot;font-family: &amp;#34;source code pro&amp;#34; , monospace ; color: rgb(66 , 66 , 66) ; background-color: transparent ; font-weight: 400 ; font-style: normal ; font-variant: normal ; text-decoration: none ; vertical-align: baseline&quot; id=&quot;docs-internal-guid-bd31c3f7-7fff-add3-67a0-b06b6ec8103c&quot;&gt;&lt;/span&gt;&lt;span style=&quot;font-family: &amp;#34;source code pro&amp;#34; , monospace ; color: rgb(66 , 66 , 66) ; background-color: transparent ; font-weight: 400 ; font-style: normal ; font-variant: normal ; text-decoration: none ; vertical-align: baseline&quot; id=&quot;docs-internal-guid-bd31c3f7-7fff-add3-67a0-b06b6ec8103c&quot;&gt;&lt;/span&gt;&lt;/font&gt;&lt;/div&gt;" style="text;html=1;align=center;verticalAlign=middle;resizable=0;points=[];autosize=1;strokeColor=none;fillColor=none;fontSize=10;" vertex="1" parent="1">
          <mxGeometry x="530" y="-435" width="70" height="20" as="geometry" />
        </mxCell>
        <mxCell id="Fs0EK0N3hpx1ZLhl30mS-63" value="&lt;div&gt;&lt;span style=&quot;font-size: 10px ; font-family: &amp;#34;source code pro&amp;#34; , monospace ; color: rgb(66 , 66 , 66) ; background-color: transparent ; font-weight: 400 ; font-style: normal ; font-variant: normal ; text-decoration: none ; vertical-align: baseline&quot; id=&quot;docs-internal-guid-bd31c3f7-7fff-add3-67a0-b06b6ec8103c&quot;&gt;IP: 10.10.21.244&lt;/span&gt;&lt;span style=&quot;font-size: 10px ; font-family: &amp;#34;source code pro&amp;#34; , monospace ; color: rgb(66 , 66 , 66) ; background-color: transparent ; font-weight: 400 ; font-style: normal ; font-variant: normal ; text-decoration: none ; vertical-align: baseline&quot; id=&quot;docs-internal-guid-bd31c3f7-7fff-add3-67a0-b06b6ec8103c&quot;&gt;&lt;/span&gt;&lt;span style=&quot;font-size: 10px ; font-family: &amp;#34;source code pro&amp;#34; , monospace ; color: rgb(66 , 66 , 66) ; background-color: transparent ; font-weight: 400 ; font-style: normal ; font-variant: normal ; text-decoration: none ; vertical-align: baseline&quot; id=&quot;docs-internal-guid-bd31c3f7-7fff-add3-67a0-b06b6ec8103c&quot;&gt;&lt;/span&gt;&lt;/div&gt;" style="text;html=1;align=center;verticalAlign=middle;resizable=0;points=[];autosize=1;strokeColor=none;fillColor=none;fontSize=10;" vertex="1" parent="1">
          <mxGeometry x="55" y="-308" width="110" height="20" as="geometry" />
        </mxCell>
      </root>
    </mxGraphModel>
  </diagram>
</mxfile>
